<svg version="1.1" id="Layer_1" xmlns="http://www.w3.org/2000/svg" xmlns:xlink="http://www.w3.org/1999/xlink" x="0px" y="0px"
	 viewBox="0 0 1700 1400" enable-background="new 0 0 1700 1400" xml:space="preserve">
<g>
	<rect fill="#FFFFFF" width="1700" height="1400"/>
	<g>
		<g>
			<g>
				<path fill="#C8EEFC" d="M1230.4,1292.4c-137.7,21.1-276.4,36-415.4,44.7c-105.3,6.6-211.6,9.5-315.5-8.8
					c-103.9-18.2-206.2-58.9-284.8-130.6C121.7,1112.8,68.2,990.1,45,865c-18-96.7-19.2-196.9-0.5-293.5
					c14.4-74.2,43.3-149.9,102.2-195.7c50-38.8,115.5-51.2,178.3-50.2c240,3.7,451.8,180.5,691.8,189.2
					c87.8,3.2,174.6-16.5,262.2-23.5s181.1,0.6,253.2,51.7c64.3,45.5,103.7,120.7,123.1,198c42.6,170.2-13.9,370.5-158,466.6
					C1418.6,1260,1323.3,1278.2,1230.4,1292.4z"/>
				<g>
					<defs>
						<path id="SVGID_7_" d="M1230.4,1292.4c-137.7,21.1-276.4,36-415.4,44.7c-105.3,6.6-211.6,9.5-315.5-8.8
							c-103.9-18.2-206.2-58.9-284.8-130.6C121.7,1112.8,68.2,990.1,45,865c-18-96.7-19.2-196.9-0.5-293.5
							c14.4-74.2,43.3-149.9,102.2-195.7c50-38.8,115.5-51.2,178.3-50.2c240,3.7,451.8,180.5,691.8,189.2
							c87.8,3.2,174.6-16.5,262.2-23.5s181.1,0.6,253.2,51.7c64.3,45.5,103.7,120.7,123.1,198c42.6,170.2-13.9,370.5-158,466.6
							C1418.6,1260,1323.3,1278.2,1230.4,1292.4z"/>
					</defs>
					<clipPath id="SVGID_2_">
						<use xlink:href="#SVGID_7_"  overflow="visible"/>
					</clipPath>
					<g clip-path="url(#SVGID_2_)">
						<g>
							<path fill="#9CDBF5" d="M380.9,540.6h-350v539.3h350c47.6,0,86.1-38.6,86.1-86.1V626.7C467,579.1,428.5,540.6,380.9,540.6z"
								/>
							<path fill="#9CDBF5" d="M1151,540.6H674.1c-47.6,0-86.1,38.6-86.1,86.1v367.1c0,47.6,38.6,86.1,86.1,86.1H1151
								c47.6,0,86.1-38.6,86.1-86.1V626.7C1237.1,579.1,1198.6,540.6,1151,540.6z"/>
							<path fill="#9CDBF5" d="M1453.2,540.6c-47.6,0-86.1,38.6-86.1,86.1v367.1c0,47.6,38.6,86.1,86.1,86.1H1695V540.6H1453.2z"/>
						</g>
						<g>
							<path fill="#FFFFFF" d="M98,841.4c-1.9,0-3.8-0.7-5.3-2.2c-2.9-2.9-2.9-7.7,0-10.6l185.1-185.1c2.9-2.9,7.7-2.9,10.6,0
								c2.9,2.9,2.9,7.7,0,10.6L103.3,839.2C101.8,840.6,99.9,841.4,98,841.4z"/>
						</g>
						<g>
							<path fill="#FFFFFF" d="M249,813.4c-1.9,0-3.8-0.7-5.3-2.2c-2.9-2.9-2.9-7.7,0-10.6l74.6-74.6c2.9-2.9,7.7-2.9,10.6,0
								c2.9,2.9,2.9,7.7,0,10.6l-74.6,74.6C252.8,812.6,250.9,813.4,249,813.4z"/>
						</g>
						<g>
							<path fill="#FFFFFF" d="M170,993.3c-1.9,0-3.8-0.7-5.3-2.2c-2.9-2.9-2.9-7.7,0-10.6L314,831.2c2.9-2.9,7.7-2.9,10.6,0
								c2.9,2.9,2.9,7.7,0,10.6L175.3,991.1C173.8,992.6,171.9,993.3,170,993.3z"/>
						</g>
						<g>
							<path fill="#FFFFFF" d="M738.3,835.6c-1.9,0-3.8-0.7-5.3-2.2c-2.9-2.9-2.9-7.7,0-10.6l149.4-149.4c2.9-2.9,7.7-2.9,10.6,0
								c2.9,2.9,2.9,7.7,0,10.6L743.6,833.4C742.1,834.9,740.2,835.6,738.3,835.6z"/>
						</g>
						<g>
							<path fill="#FFFFFF" d="M725.1,1008.3c-1.9,0-3.8-0.7-5.3-2.2c-2.9-2.9-2.9-7.7,0-10.6l339.5-339.5c2.9-2.9,7.7-2.9,10.6,0
								c2.9,2.9,2.9,7.7,0,10.6l-339.5,339.5C728.9,1007.6,727,1008.3,725.1,1008.3z"/>
						</g>
						<g>
							<path fill="#FFFFFF" d="M932.1,918.6c-1.9,0-3.8-0.7-5.3-2.2c-2.9-2.9-2.9-7.7,0-10.6l74.8-74.8c2.9-2.9,7.7-2.9,10.6,0
								c2.9,2.9,2.9,7.7,0,10.6l-74.8,74.8C935.9,917.9,934,918.6,932.1,918.6z"/>
						</g>
						<g>
							<path fill="#FFFFFF" d="M912.6,1044.4c-1.9,0-3.8-0.7-5.3-2.2c-2.9-2.9-2.9-7.7,0-10.6l188.8-188.8c2.9-2.9,7.7-2.9,10.6,0
								c2.9,2.9,2.9,7.7,0,10.6l-188.8,188.8C916.4,1043.7,914.5,1044.4,912.6,1044.4z"/>
						</g>
						<g>
							<path fill="#FFFFFF" d="M1479.8,855.6c-1.9,0-3.8-0.7-5.3-2.2c-2.9-2.9-2.9-7.7,0-10.6l121.6-121.6c2.9-2.9,7.7-2.9,10.6,0
								c2.9,2.9,2.9,7.7,0,10.6l-121.6,121.6C1483.6,854.8,1481.7,855.6,1479.8,855.6z"/>
						</g>
						<g>
							<path fill="#FFFFFF" d="M1491,950c-1.9,0-3.8-0.7-5.3-2.2c-2.9-2.9-2.9-7.7,0-10.6l221.6-221.6c2.9-2.9,7.7-2.9,10.6,0
								c2.9,2.9,2.9,7.7,0,10.6l-221.6,221.6C1494.8,949.3,1492.9,950,1491,950z"/>
						</g>
						<g>
							<path fill="#FFFFFF" d="M1601.4,950c-1.9,0-3.8-0.7-5.3-2.2c-2.9-2.9-2.9-7.7,0-10.6l62.2-62.2c2.9-2.9,7.7-2.9,10.6,0
								c2.9,2.9,2.9,7.7,0,10.6l-62.2,62.2C1605.2,949.3,1603.3,950,1601.4,950z"/>
						</g>
						<rect x="90.5" y="1125.2" fill="#FFFFFF" width="1578.6" height="31.6"/>
						<rect x="90.5" y="1156.8" fill="#9CDBF5" width="1578.6" height="88.9"/>
					</g>
				</g>
				<g>
					<defs>
						<path id="SVGID_9_" d="M1507.2,809C1507.2,809,1507.2,809,1507.2,809c-13.4-15.5-30.6-27.6-49.7-36.5h107.3
							c-5.8-54.6-1.6-114-4.6-168.8c-0.8-13.6-1.9-27.2-3.4-40.8c-4.8-41.2-14.2-81.9-32.7-118.8c-24.7-49.1-67.8-91.1-121.2-103.9
							c-48.2-11.6-101.9,2.8-137.9,36.8c-31.7,29.9-45,76.2-41.8,120.1c0.4,6.1,1.2,12.1,2.3,18.1h7.1c-4,60.6-28,190.5-64,257.3
							H1324c-0.8,0.7-1.7,1.5-2.5,2.3c-15.3,4.2-29.2,13.7-40.3,25.2c-13.9,14.5-24.1,32.2-33.9,49.8c-2.7,4.9-5.4,9.8-8.1,14.7
							c-0.9-1.8-1.8-3.6-2.8-5.4c-2.2-4.1-4.6-8.1-7.1-12.1c-13.1-20.2-30.5-37-50.3-50.6c-27.1-18.5-58.8-31-90.9-38
							c-19.5-4.2-40.3-9.5-61.3-13.5c-4.4-19.4-7.9-39.1-10.7-59c-1.8-12.6-3.2-25.2-4.3-37.8c7.5-11.5,13.5-23.9,18-36.1
							c4.9-13.5,8.6-27.3,11.1-41.3c3.4,1.5,7.4,1.6,11.2,1.5c4.5-0.2,9.2-0.7,13.3-3c4.2-2.4,7.5-6.6,10.5-11
							c4.3-6.2,8.2-13,10-20.9s1-16.9-3.4-23.1c-0.2-0.3-0.4-0.6-0.6-0.8c-3.7-4.7-9.3-7-14.7-7.3c-7.7-0.4-15.5,3-21.6,8.9
							c-0.1,0.1-0.1,0.1-0.2,0.2c0-0.1,0-0.1,0.1-0.2c15.7-46.1,19.2-99.5,4.5-145.8c-15-47.2-51.7-88.6-99.2-102.3
							c-47.5-13.8-104.4,4.4-129.7,46.8c-28.9-3.5-56.5,14.1-68.9,40.4c-12.5,26.3-12.5,56.7-9.5,85.7c0.3,2.5,0.6,4.9,0.9,7.4
							c4.1,31.5,13.3,63.5,24,93.6c-3.4-1.3-6.9-1.9-10.4-1.7c-5.7,0.3-11.6,2.8-15.3,8.1c-4.3,6.2-5.1,15.2-3.4,23.1
							s5.7,14.7,10,20.9c3,4.3,6.3,8.6,10.5,11c4.1,2.4,8.7,2.8,13.3,3c5.4,0.2,11.4-0.2,15.5-4.5c1.4,3.2,2.8,6.3,4.2,9.5
							c10.1,21.5,23.3,42.3,41.6,59.1c1.8,13.8,3.3,27.5,4.7,41.3c2.4,23.3,4.2,46.7,5.6,70.2c-24.3,9-48.6,18-72,29
							c-11.3,5.4-22.5,11.4-33.2,18.1c-17.2,10.7-33.2,23.3-46.8,37.9c-28-23.8-63.8-40.4-107.7-54.1l-21.8-37
							c-1.5-12-2.9-24.2-4.4-36.6c-2.4-19.5-4.7-39.3-7.1-58.6c10.2,4.4,20.5,8.7,30.8,12.7c25.5,10.1,58.3,17.9,77.3-1.9
							c13-13.5,13.5-34.4,12.7-53.1c-2.9-71.8-12.8-143.4-29.5-213.3c6.1-2.8,12.2-6.2,18.3-10.2c8.8-5.9,17.7-13.3,26.7-22.7
							C646.2,298,458.4,283,426.7,336.9c-1.4,2.4-2.5,4.9-3.3,7.6c-61.5-3.3-84,106.8-49.5,263.9c0,0,8.7-3.1,19.9-8.6
							c-3.2,14.1-6.4,28.1-9.5,42.2c-8.6,38.1-17.2,76.3-25.9,114.4l-34.1,38.9c-151.4,42.3-189.6,166.5-189,307.2
							c22.4,35,48.8,67.1,79.5,95.1c78.6,71.7,180.8,112.4,284.8,130.6c103.9,18.2,210.3,15.3,315.5,8.8
							c139-8.7,277.7-23.6,415.4-44.7c92.8-14.2,188.2-32.4,266.8-84.8c21.1-14,40.3-30.3,57.5-48.4c0.1-1.6,0.1-3.3,0.2-4.9
							c0.4-10.5,0.8-21.4,1.2-32.5C1560,999,1558.2,843.4,1507.2,809z"/>
					</defs>
					<clipPath id="SVGID_4_">
						<use xlink:href="#SVGID_9_"  overflow="visible"/>
					</clipPath>
					<g clip-path="url(#SVGID_4_)">
						<g>
							<path fill="#FFD288" d="M673.7,1345.1c45.2,36.1,108,46.5,165.8,48.9c79,3.3,158.1,2.9,237.1-1.1
								c69.5-3.5,141.4-10.6,202.1-44.7c-0.8-26.1-1.8-52.5-2.8-79.2c-87.3,64.8-189.3,106.4-294.6,119.3
								C877.6,1401,771.1,1385.8,673.7,1345.1z"/>
							<path fill="#FFD288" d="M991.1,944.3c86.7-9.8,171.1-39.4,245.4-85.1c-2.2-4.1-4.6-8.1-7.1-12.1
								c-13.1-20.2-30.5-37-50.3-50.6c-96.5,55.5-210.5,80.7-321.4,70c-42-4.1-85.6-14.3-119.4-38.3c-26.6,16.6-50.5,37.6-66.6,63.7
								C770.7,938,882.5,956.6,991.1,944.3z"/>
							<path fill="#F6BC57" d="M1179,796.5c-27.1-18.5-58.8-31-90.9-38c-55.7-12.1-122.1-32.7-173.1-7.2
								c-46.3,23.1-96.8,36.6-143.5,58.8c-11.3,5.4-22.5,11.4-33.2,18.1c33.8,24.1,77.4,34.3,119.4,38.3
								C968.5,877.2,1082.5,852,1179,796.5z"/>
							<path fill="#F6BC57" d="M981.4,1032.5c98.4-12.1,194-49.2,277.4-107c-4.3-23.3-11.1-45.8-22.3-66.4
								c-74.3,45.7-158.6,75.3-245.4,85.1c-108.6,12.3-220.4-6.2-319.4-52.5c-4.2,6.8-7.9,14-10.9,21.6c-8.3,20.6-11.3,42.6-12,64.9
								C752.7,1027.2,868.7,1046.4,981.4,1032.5z"/>
							<path fill="#F6BC57" d="M653.1,1069.2c2.1,30.6,4.2,61.2,6.3,91.8c101.2,45.3,213.1,62.7,322,49.4
								c102.6-12.6,202.2-52.5,288-114.5c-0.9-25.7-1.8-51.2-2.7-76.3c-0.1-3.5-0.2-6.9-0.4-10.4c-85.1,60.8-183.6,99.9-285,112.3
								C870.2,1135.1,755.9,1116.6,653.1,1069.2z"/>
							<path fill="#FFD288" d="M981.4,1032.5c-112.7,13.8-228.6-5.4-332.6-54.3c-0.5,19,0.7,38.3,2,57.2c0.8,11.3,1.5,22.5,2.3,33.8
								c102.8,47.4,217.1,65.9,328.2,52.3c101.4-12.4,199.9-51.5,285-112.3c-1-27.9-2.6-56.3-7.6-83.6
								C1175.4,983.3,1079.8,1020.5,981.4,1032.5z"/>
							<path fill="#F6BC57" d="M665.7,1252.7c2.1,30.3,4.1,60.6,6.2,90.9c0.6,0.5,1.2,0.9,1.8,1.4c97.4,40.7,203.9,55.9,307.7,43.2
								c105.3-12.9,207.3-54.5,294.6-119.3c-1.1-28.7-2.2-57.6-3.3-86.5c-86.5,63.4-187.3,104.2-291.3,116.9
								C874.7,1312.4,765.2,1296,665.7,1252.7z"/>
							<path fill="#FFD288" d="M659.4,1161c2.1,30.6,4.2,61.1,6.3,91.7c99.5,43.2,209.1,59.7,315.7,46.6
								c104-12.7,204.8-53.5,291.3-116.9c-1.1-28.9-2.2-57.9-3.3-86.6c-85.8,62-185.4,101.9-288,114.5
								C872.5,1223.8,760.6,1206.3,659.4,1161z"/>
						</g>
						<g>
							<path fill="#C4E8F8" d="M322.7,963.2c-24.3,13.8-46.7,35.1-65.8,55.4c18.2,123.1,26.2,247.8,23.6,372.2c0,1-0.1,2-0.1,3
								l37.4,0c-0.6-123.2-13.2-246.6-37-367.5C291.3,1004.9,307.2,981.5,322.7,963.2z"/>
							<path fill="#FFFFFF" d="M583.8,811.9l-226-19.2l-33.5,2.7c-255,71.2-189,375-157,598.5l113.1,0c0-1,0.1-2,0.1-3
								c2.5-124.4-5.4-249.1-23.6-372.2c19.1-20.3,41.6-41.6,65.8-55.4c-15.5,18.2-31.4,41.6-41.9,63.1
								c23.8,120.9,36.4,244.2,37,367.5l335.1,0c27.3-123.3,37.1-250.5,28.8-376.5c24.6,124,25.3,252.6,1,376.5l58.8,0
								C805.7,967.8,759.3,866.6,583.8,811.9z"/>
							<path fill="#C4E8F8" d="M681.7,1017.3c8.3,126-1.5,253.2-28.8,376.5l29.8,0C707.1,1269.9,706.3,1141.3,681.7,1017.3z"/>
						</g>
						<polygon fill="#C4E8F8" points="324.3,795.4 439.3,947.8 452.1,922.8 466.3,947.8 452.1,1088 502.6,930.4 515.3,912.1 
							522.3,930.4 583.8,811.9 						"/>
						<g>
							<path fill="#006FAD" d="M1281.2,800.1c-13.9,14.5-24.1,32.2-33.9,49.8c-20.7,37.3-40.3,75.3-58.8,113.8
								c23.3,34.9,53.8,65,88.9,88c42.6-82.4,49.6-185,56.1-278.9C1313.5,774.3,1295.2,785.6,1281.2,800.1z"/>
							<path fill="#FF956B" d="M1149.2,1050.3c-1.2,2.8-2.4,5.6-3.6,8.3c-16-28.5-33.6-56.1-52.7-82.7c-18.6,9-68.3,47-51.6,59.3
								c28.7,21.2,36.5,34.1,45.5,52.8c15.1,31.4,30.3,62.8,45.4,94.2c3.8,7.8,9.4,16.8,17.6,17.8
								C1165.2,1151.7,1165.1,1098.5,1149.2,1050.3z"/>
							<path fill="#EC683D" d="M1188.5,963.6c-13.8,28.6-26.9,57.6-39.4,86.8c15.9,48.1,16.1,101.4,0.7,149.7
								c0.7,0.1,1.4,0.1,2.1,0.1c6.4-0.3,11.4-5.5,15.6-10.4c24-27.4,48-54.7,72-82.1c15.1-17.2,27.6-36,37.9-56.1
								C1242.3,1028.6,1211.8,998.5,1188.5,963.6z"/>
						</g>
						<g>
							<path fill="#0096C9" d="M1370,753.4c-30.4-0.4-55.7,23.9-71,50.1s-24.6,56.1-43.2,80.1c-15.2,19.7-35.7,34.4-53.8,51.5
								c-18.1,17-34.5,38.1-37.2,62.8c-2.7,24.7,13.1,52.7,37.8,55.5c-1.5,89.4-18.6,181-51.8,264c87.4,51.7,195.7,65,295,41.9
								c-84.6-62.5-153.7-144.8-199.6-240.1c57.6,23.9,121.9,28.4,183.4,18.1c-0.2-83.2,13.7-166.4,40.9-244.9
								c8.3-23.9,32-38.3,56.8-51.1c-1.3-2.9-2.6-5.7-4.1-8.6C1496,778.9,1430.3,754.3,1370,753.4z"/>
							<path fill="#006FAD" d="M1470.4,892.4c-27.2,78.6-41.1,161.8-40.9,244.9c-61.5,10.3-125.8,5.8-183.4-18.1
								c45.9,95.3,115,177.6,199.6,240.1c25.3-5.9,50.1-14.1,73.7-24.7c17.6-106.5,28.1-217.1,30.7-325c1.4-57.1,0.2-116.4-23-168.3
								C1502.4,854.1,1478.7,868.5,1470.4,892.4z"/>
						</g>
						<g>
							<path fill="#EC683D" d="M868.9,740.2c20.7,17,47,31.8,73,25.3c17.9-4.5,31.8-18.5,43.4-32.9c11.6-14.5,21.9-30.1,30.7-46.6
								c-4.8-34.5-7.3-69.3-7.5-103.6c-61.8-7.1-125.3,2.2-186,16.2c6.5,37.2,11.6,74.6,15.4,112.2
								C847.6,721.3,857.9,731.2,868.9,740.2z"/>
							<path fill="#FF956B" d="M985.3,732.6c-11.6,14.4-25.5,28.4-43.4,32.9c-25.9,6.6-52.3-8.3-73-25.3c-11-9.1-21.4-18.9-31-29.4
								c2.9,28.7,5,57.4,6.4,86.2c26.8,25.2,62.3,39.5,98.9,35.3c36.6-4.2,70.9-25.2,91.3-55.8c-8.1-29.4-14.3-59.8-18.6-90.4
								C1007.2,702.4,997,718.1,985.3,732.6z"/>
						</g>
						<path fill="#821111" d="M1232.9,499.5c0,50.3-25.1,199.7-64.6,273h271.9l47.3-162.1l-46.3-153.4h-175.6L1232.9,499.5z"/>
						<g>
							<path fill="#FF956B" d="M1348.7,802.7c-9.4,15.7-22.2,34.4-13.1,50.3c5.4,9.3,17,13.4,27.7,13.6
								c26.2,0.3,49.6-18.6,62.1-41.6c12.6-23,16.4-49.6,19.9-75.5c1.4-10.1,2.8-20.3,3.9-30.5c-25.4,24.3-55.5,43.6-88.1,56.6
								C1358,785,1353.8,794.1,1348.7,802.7z"/>
							<path fill="#EC683D" d="M1448.4,637.6c-31.4,13.8-62,36-82.8,63.2c5.3,24.7,3.6,50.8-4.4,74.7c32.6-13.1,62.7-32.4,88.1-56.6
								C1452.2,691.7,1453.5,664.4,1448.4,637.6z"/>
						</g>
						<g>
							<path fill="#EC683D" d="M548.6,664.4c-7.4-60.9-84.2-98.6-144.5-110c-6.6,29.2-13.2,58.4-19.8,87.6
								c48.5,45.8,108.7,79.2,173.2,96.3C554.5,713.5,551.5,688.4,548.6,664.4z"/>
							<path fill="#FF956B" d="M384.3,642.1c-8.6,38.1-17.2,76.3-25.9,114.4c36.8,29.9,80.9,50.4,125.1,67.6
								c27.6-13.3,53.8-31.1,78.4-49.2c-1.5-12-2.9-24.2-4.4-36.6C493,721.3,432.8,687.9,384.3,642.1z"/>
						</g>
						<path fill="#FF956B" d="M636.6,403.2c19.9,76.6,31.6,155.3,34.8,234.3c0.8,18.7,0.3,39.6-12.7,53.1c-19,19.8-51.8,12-77.3,1.9
							c-69-27.3-135.4-61.4-197.9-101.5c6.4-47.5,6.4-106,26.5-149.5s56-82.3,102.5-93.8C558.9,336.1,624.5,356.8,636.6,403.2z"/>
						<path fill="#FFB89F" d="M564.4,559.3c14.1,0.7,28.2,1.3,42.3,2c3.5,0.2,7.3,0.3,10.1-1.8c3-2.1,4.1-6.1,3.8-9.7
							c-0.3-3.6-1.9-7-3.5-10.3c-13.9-28.1-30.6-54.9-49.8-79.7C564.4,492.8,563.7,526.3,564.4,559.3z"/>
						<circle fill="#072A3E" cx="521.2" cy="469.1" r="9.2"/>
						<circle fill="#072A3E" cx="620.7" cy="469.1" r="9.2"/>
						<path fill="#FFFFFF" d="M615.5,599.8c-32.9,3.9-67.1-4.3-94.5-22.8c-1.4,10.4-0.6,22.3,2.5,32.3c3.1,10,9.3,19.2,18.2,24.8
							c13.1,8.1,30.5,7.2,44.1-0.1C599.2,626.7,609.1,613.8,615.5,599.8z"/>
						<path fill="#203670" d="M686.9,391.3c-34.6,36.1-66.1,42.3-104.7,48.3s-78,4-117,1.9l-18.7,88.7c-12-36-50-37.6-44,6.7
							s37,24.4,37,24.4c-11.5,27.9-65.5,47.1-65.5,47.1c-34.5-157.1-12-267.3,49.5-263.9C441.4,281.8,644.4,293.8,686.9,391.3z"/>
						<path fill="#FF956B" d="M1475.2,653.9c-29.2,36.9-67.3,66.7-110.3,86c-16.5,7.4-34,13.4-52.1,13.5
							c-18.1,0.2-36.9-6.1-48.7-19.8c-11.2-13-14.9-30.6-17.4-47.5c-8.6-56.3-9.2-113.7-1.9-170.2c5.6-43.2,25.3-96,64.6-114.8
							c39.3-18.8,88.3-12.6,124.2,12.1c35.9,24.7,58.8,65.9,65.2,109C1505.2,565.3,1502.2,619.7,1475.2,653.9z"/>
						<path fill="#A61A15" d="M1225.2,515.2h77.2c0.9-20.9,10-48.5,22.3-65.4c-5,22.3-7.3,45.2-6.7,68h79c0.5-16.9,5-39.6,9.4-55.9
							c0.4,22.5,0.7,45,1.1,67.5h53.2c0,59.8-0.5,175.5-67,243.1h171.1c-5.8-54.6-1.6-114-4.6-168.8
							c-3.1-54.9-11.5-110.5-36.2-159.6c-24.7-49.1-67.8-91.1-121.2-103.9c-48.2-11.6-101.9,2.8-137.9,36.8
							S1216.4,466.4,1225.2,515.2z"/>
						<path fill="#FFB89F" d="M1311.6,643.8c-6.3,0.3-12.8,0.6-18.8-1.6c-6-2.1-11.3-7.3-11.7-13.6c-0.2-4.2,1.7-8.2,3.5-12
							c9.4-18.9,18.8-37.8,28.2-56.7C1314,587.5,1314.7,616.4,1311.6,643.8z"/>
						<g>
							<path fill="#072A3E" d="M1271.6,556.4c-5.9-0.5-11.9,2.5-15,7.5c-1,1.6-0.5,3.8,1.1,4.8c1.6,1,3.8,0.5,4.8-1.1
								c1.7-2.8,5.3-4.5,8.5-4.3c3.3,0.3,6.4,2.6,7.7,5.6c0.6,1.3,1.9,2.2,3.2,2.2c0.5,0,0.9-0.1,1.3-0.3c1.8-0.7,2.6-2.8,1.9-4.6
								C1282.9,560.9,1277.5,556.9,1271.6,556.4z"/>
							<path fill="#072A3E" d="M1379.8,566.3c-2.3-5.4-7.7-9.4-13.6-9.9c-5.9-0.5-11.9,2.5-15,7.5c-1,1.6-0.5,3.8,1.1,4.8
								c1.6,1,3.8,0.5,4.8-1.1c1.7-2.8,5.3-4.5,8.5-4.3c3.3,0.3,6.4,2.6,7.7,5.6c0.6,1.3,1.9,2.2,3.2,2.2c0.5,0,0.9-0.1,1.3-0.3
								C1379.7,570.1,1380.6,568.1,1379.8,566.3z"/>
						</g>
						<path fill="#FF956B" d="M1507,624.2c-2.1,20.6-15.7,39.7-34.5,48.4c-6.8,3.1-14.4,5-21.7,3.9c-7.4-1.1-14.5-5.4-17.8-12.1
							c-3.8-7.9-1.7-17.3,1.4-25.5c6.8-17.8,19.2-34.5,37-41.3c10.1-3.8,23-3.5,30.2,4.6C1506.8,607.9,1507.8,616.4,1507,624.2z"/>
						<circle fill="#F6BC57" cx="1460.3" cy="679.5" r="13"/>
						<path fill="#FFFFFF" d="M1345.3,663.1c-21.5,10-47.7,9.2-68.5-2.1c-2.6,13.1,2.9,27.2,13.8,35.1s26.3,8.9,38,2.4
							C1340.2,692.1,1346.1,676.5,1345.3,663.1z"/>
						<polygon fill="#FFFFFF" points="358.4,756.5 324.3,795.4 439.8,915.4 483.5,824.1 						"/>
						<polygon fill="#FFFFFF" points="483.5,824.1 561.9,774.9 583.8,811.9 527.5,904.9 						"/>
						<g>
							<path fill="#FF956B" d="M748.1,591.3c3,4.3,6.3,8.6,10.5,11c4.1,2.4,8.7,2.8,13.3,3c5.7,0.2,12.1-0.2,16.1-5.2
								c3.1-3.9,4-9.7,4.1-15.1c0.1-11.7-3.3-23.6-9.7-32.3c-6.5-8.7-16-13.9-25.6-13.4c-5.7,0.3-11.6,2.8-15.3,8.1
								c-4.3,6.2-5.1,15.2-3.4,23.1S743.8,585.1,748.1,591.3z"/>
							<path fill="#FF956B" d="M1075.7,558.3c-3,4.3-6.3,8.6-10.5,11c-4.1,2.4-8.7,2.8-13.3,3c-5.7,0.2-12.1-0.2-16.1-5.2
								c-3.1-3.9-4-9.7-4.1-15.1c-0.1-11.7,3.3-23.6,9.7-32.3c6.5-8.7,16-13.9,25.6-13.4c5.7,0.3,11.6,2.8,15.3,8.1
								c4.3,6.2,5.1,15.2,3.4,23.1S1080,552.1,1075.7,558.3z"/>
							<path fill="#FF956B" d="M1028.7,439.8c-11.4-30.4-29.4-59.8-57.5-80.8c-28-21-67.1-32.7-103.4-25.5
								c-30.8,6.1-56.8,25.2-73.2,48.4c-16.4,23.2-24.1,50.2-27.5,77.2c-6.4,51.1,2,103.6,24.4,151.3c12,25.6,28.5,50.4,52.9,68.5
								c24.4,18.1,57.6,28.8,89.3,23.8c49.2-7.8,81-49.6,95.9-90.5C1049.9,556.4,1049.6,495.3,1028.7,439.8z"/>
							<path d="M772.2,554.4c21.6-44,26.1-113,26.1-113c73.5,27,189,7.5,211.5-13.5l34.6,89.7c16.5-46.6,20.3-101.2,5.3-148.4
								s-51.7-88.6-99.2-102.3c-47.5-13.8-104.4,4.4-129.7,46.8c-28.9-3.5-56.5,14.1-68.9,40.4c-12.5,26.3-12.5,56.7-9.5,85.7
								C746.3,478.5,758.4,518.2,772.2,554.4z"/>
							<circle fill="#072A3E" cx="848.3" cy="520.2" r="9.6"/>
							<circle fill="#072A3E" cx="958.3" cy="510.6" r="9.6"/>
							<path fill="#FFB89F" d="M911.4,599.8c-2-27.1-4.1-54.2-6.1-81.3c9.4,19.9,20.4,38.9,31.9,57.7
								C930.1,585.3,921.3,593.8,911.4,599.8z"/>
							<path fill="#FFFFFF" d="M955.8,604.8c-21.9,13.1-49,17.3-73.9,11.4c5.1,17.1,22.7,30.3,40.4,27.7
								C939.9,641.3,955.9,622.7,955.8,604.8z"/>
						</g>
						<path fill="#0096C9" d="M1556.1,1121.8c3.9-122.8,2.1-278.4-48.9-312.8c-37.1,37.9-52.6,99-50.3,152
							c1.5,33.9,1.9,90.3,6.4,139.7C1491.1,1116.9,1524,1124.3,1556.1,1121.8z"/>
						<g>
							<path fill="#FF956B" d="M1475.6,1172.7c-68.3-8.1-135.9-30.7-198-60.2c3.7-29.6-3.6-60.5-20.1-85.3
								c-11.4-0.5-20.1,11.5-20.3,22.9c-0.2,11.4,5.8,25.6,11.4,35.5c-14.6-7.2-29.2-14.3-43.8-21.5c-11.3-5.5-23.4-11.2-35.9-9.5
								c-17.2,2.3-30.2,19.7-30.2,37s11,33.6,25.8,42.7c14.8,9.1,33.3,13.3,50.6,12.1c65.3,44.1,136.5,79.5,211.1,105
								c22.8,7.8,46.6,14.7,70.6,12.3c24-2.4,54.5-19,55.5-43c0.7-19,1.8-41.6,2.8-66.4c-32.8-2.7-64.7-15.7-89.9-36.9
								C1467.5,1138.8,1470.8,1158.1,1475.6,1172.7z"/>
							<path fill="#EC683D" d="M1463.3,1100.8c0.5,5.7,1.1,11.2,1.7,16.6c25.2,21.2,57.1,34.1,89.9,36.9c0.4-10.5,0.8-21.4,1.2-32.5
								C1524,1124.3,1491.1,1116.9,1463.3,1100.8z"/>
						</g>
						<path fill="#FF956B" d="M1025.7,948.9c5.4-3.7,12-5.5,18.5-6.4c6.2-0.9,13-1.1,18.3,2.3c9.9,6.5,8.8,21,12,32.4
							c2.7,9.3,8.8,17.2,13.5,25.7c4.8,8.4,8.3,18.6,5.2,27.8c-4.5,13.3-21.6,18.8-35,14.7c-13.4-4.2-23.4-15.3-31.4-26.9
							c-7.3-10.6-13.6-22.4-15-35.3C1010.6,970.3,1015.1,956.2,1025.7,948.9z"/>
						<path fill="#FF956B" d="M1090.5,1029.2c-6.3-1.7-11.2-6.6-14.9-11.8c-8.6-11.9-13.1-27.6-8.3-41.4c2.4-7,7-13.3,8.1-20.6
							c1-6.7-1.2-13.5-3.2-19.9s-4.1-13.3-3-20s6.6-13.2,13.4-13c6.9,0.2,12,6.8,13.5,13.5c1.6,6.7,0.6,13.7,1.3,20.5
							c1.2,12.7,7.5,24.1,12.9,35.6c5.4,11.5,10,24.2,7.5,36.7C1115.2,1021.3,1102.8,1032.5,1090.5,1029.2z"/>
						<polygon fill="#F05E36" points="483.5,824.1 452.1,889.6 475.2,930.4 502.6,930.4 520.3,891.7 						"/>
						<polygon fill="#F05E36" points="475.2,930.4 424.8,1273.9 502.8,1345.9 550.8,1275.4 502.6,930.4 						"/>
					</g>
				</g>
			</g>
			<path fill="#FBE6BD" d="M827.6,80.8c-25.9-14.6-57.6-14.1-86.9-9.4c-29.4,4.7-58.4,13-88.1,12.7c-47.3-0.5-92.3-23-139.7-23.2
				c-31.7-0.1-66.5,12.7-80.2,41.3c-10,20.9-6.8,45.9,1,67.7c18.5,52.2,61.7,93.7,112.3,116.2c48.6,21.6,103.5,26.5,156.4,19.9
				c5.7,21.9,2.6,46.3-9.3,65.6c18.1-8.1,33.3-25.3,42-43.2c4.6-9.4,7.4-19.7,8.3-30.2c24.8-6.4,48.6-16.2,69.5-30.9
				c30.5-21.4,54.1-54.2,58.9-91.1C876.6,139.3,860.1,99,827.6,80.8z"/>
			<path fill="#FBE6BD" d="M1530.6,126.7c-27.9-27.3-64.7-44.1-102.4-54.6c-79.4-22.2-165.8-18.3-242.9,10.8
				c-38.8,14.7-76.4,36.6-100.6,70.3c-24.2,33.7-32.6,80.9-12.8,117.4c12.9,23.7,35.7,39.9,61.4,48.9c-2.4,16-0.7,32.6,5.2,47.6
				c8.8,22.4,26.7,41.1,48.8,50.8c-9.2-16-12.4-36.7-9-54.8c2.4-12.8,8-24.9,16.2-35c32.6-1,64.9-9,96.8-16.5
				c39.1-9.1,79.5-17.5,119.2-11.3c29.9,4.7,59.3,17.6,89.2,12.9c38.6-6,68.4-42.5,72.6-81.4
				C1576.6,193.2,1558.5,154.1,1530.6,126.7z"/>
		</g>
		<path fill="#FBE6BD" d="M363.8,195.6c-4.6-28.5-26.6-51.6-51.4-66.4c-24.3-14.6-52.9-23.1-81.1-20.5c-35.4,3.3-67.8,24-89.7,52.1
			c-21.8,28.1-33.7,62.9-38.8,98c-5.2,36.2-3.2,73.9,10.5,107.8c13.7,33.8,40.1,63.4,74.2,76.4c19.8,7.5,42.1,8.8,62.5,3.7
			c14.6,22.5,36.9,40,62.5,48.2c-9.5-23.3-16.2-48.8-17.8-74.3c31.2-33.9,32.7-86.2,47-130.8C351.7,258.7,369,227.8,363.8,195.6z"/>
	</g>
</g>
</svg>
